<svg width="41" height="40" viewBox="0 0 41 40" fill="none" xmlns="http://www.w3.org/2000/svg">
<circle cx="20.3333" cy="20" r="19.25" stroke="#220A32" stroke-opacity="0.45" stroke-width="1.5"/>
<path d="M32.3333 18.5C32.3333 18.5 28.0733 18.07 22.6933 18.01C26.0133 14.54 28.3333 11.71 28.3333 11.71L27.6233 11C27.6233 11 24.7933 13.32 21.3233 16.64C21.2633 11.26 20.8333 7 20.8333 7H19.8333C19.8333 7 19.4033 11.26 19.3433 16.64C15.8733 13.32 13.0433 11 13.0433 11L12.3333 11.71C12.3333 11.71 14.6533 14.54 17.9733 18.01C12.5933 18.07 8.33325 18.5 8.33325 18.5V19.5C8.33325 19.5 12.5933 19.93 17.9733 19.99C14.6533 23.46 12.3333 26.29 12.3333 26.29L13.0433 27C13.0433 27 15.8733 24.68 19.3433 21.36C19.4133 26.73 19.8333 31 19.8333 31H20.8333C20.8333 31 21.2633 26.74 21.3233 21.36C24.7933 24.68 27.6233 27 27.6233 27L28.3333 26.29C28.3333 26.29 26.0133 23.46 22.6933 19.99C28.0633 19.92 32.3333 19.5 32.3333 19.5V18.5Z" fill="#220A32" fill-opacity="0.45"/>
</svg>
