<svg width="10" height="11" viewBox="0 0 10 11" fill="none" xmlns="http://www.w3.org/2000/svg">
<g clip-path="url(#clip0_1498_2736)">
<path d="M0.625 5.80664V9.55664C0.625 9.90164 0.905625 10.1816 1.25 10.1816H4.375V5.80664H0.625Z" fill="white"/>
<path d="M9.375 3.30633H7.3975C7.53938 3.20945 7.66125 3.1132 7.74625 3.02695C8.25062 2.52008 8.25062 1.69508 7.74625 1.1882C7.25625 0.694453 6.4025 0.695703 5.91313 1.1882C5.64188 1.46008 4.92313 2.56695 5.0225 3.30633H4.9775C5.07625 2.56695 4.3575 1.46008 4.08687 1.1882C3.59687 0.695703 2.74312 0.695703 2.25375 1.1882C1.75 1.69508 1.75 2.52008 2.25312 3.02695C2.33875 3.1132 2.46062 3.20945 2.6025 3.30633H0.625C0.280625 3.30633 0 3.58695 0 3.93133V4.86883C0 5.04133 0.14 5.18133 0.3125 5.18133H4.375V3.93133H5.625V5.18133H9.6875C9.86 5.18133 10 5.04133 10 4.86883V3.93133C10 3.58695 9.72 3.30633 9.375 3.30633ZM4.33813 3.2857C4.33813 3.2857 4.31187 3.30633 4.2225 3.30633C3.79063 3.30633 2.96625 2.85758 2.69688 2.58633C2.435 2.32258 2.435 1.89258 2.69688 1.62883C2.82375 1.50133 2.99187 1.43133 3.17062 1.43133C3.34875 1.43133 3.51688 1.50133 3.64375 1.62883C4.065 2.05258 4.48375 3.13508 4.33813 3.2857ZM5.77688 3.30633C5.68813 3.30633 5.66187 3.28633 5.66187 3.2857C5.51625 3.13508 5.935 2.05258 6.35625 1.62883C6.60813 1.37445 7.04875 1.3732 7.30313 1.62883C7.56563 1.89258 7.56563 2.32258 7.30313 2.58633C7.03375 2.85758 6.20937 3.30633 5.77688 3.30633Z" fill="white"/>
<path d="M5.625 5.80664V10.1816H8.75C9.095 10.1816 9.375 9.90164 9.375 9.55664V5.80664H5.625Z" fill="white"/>
</g>
<defs>
<clipPath id="clip0_1498_2736">
<rect width="10" height="10" fill="white" transform="translate(0 0.5)"/>
</clipPath>
</defs>
</svg>
